:version 1.10
:name ASF
:units
  mass 1
  length 1
  angle deg
:documentation
  ASF file generated by Kaydara
:root
  axis xyz
  order  tx ty tz rx ry rz
  position 0 0 0
  orientation 0 0 0
:bonedata
  begin
    id 1
    name RightUpLegDummy
    direction -1 2.30186e-007 8.31532e-007
    length 4.46685
    axis 0 0 0 xyz
  end
  begin
    id 2
    name RightUpLeg
    direction -2.30187e-007 -1 1.24343e-010
    length 16.4045
    axis -3.49089 -0.000906625 0.000286804 xyz
    dof rx ry rz
  end
  begin
    id 3
    name RightLeg
    direction -2.30181e-007 -1 -4.17157e-009
    length 17.5097
    axis 3.68512 0.0193738 -0.131023 xyz
    dof rx ry rz
  end
  begin
    id 4
    name RightFoot
    direction 8.31421e-007 -4.51202e-011 1
    length 6.49508
    axis 4.81691e-005 -0.120479 -0.188788 xyz
    dof rx ry rz
  end
  begin
    id 5
    name RightToes
    direction 0.00124746 -0.014064 0.9999
    length 3.85082
    axis 0.000481921 0.542163 -0.142578 xyz
    dof rx ry rz
  end
  begin
    id 6
    name SpineDummy
    direction 0.0717043 0.9409 -0.331007
    length 10.0032
    axis 0 0 0 xyz
  end
  begin
    id 7
    name Spine
    direction 2.30186e-007 1 4.58806e-011
    length 9.84055
    axis -0.001389 0.000121418 2.40972e-006 xyz
    dof rx ry rz
  end
  begin
    id 8
    name Spine1
    direction 0 0 0
    length 0
    axis -0.001389 0.000121451 1.30017e-006 xyz
    dof rx ry rz
  end
  begin
    id 9
    name HEadDummy
    direction -0.00347485 0.950688 -0.310128
    length 8.00997
    axis -0.001389 0.000121451 1.30017e-006 xyz
  end
  begin
    id 10
    name HEad
    direction -0.0222688 0.980941 0.193023
    length 5.12695
    axis -0.001389 0.000121451 1.30017e-006 xyz
    dof rx ry rz
  end
  begin
    id 11
    name LeftShoulder1Dummy
    direction 0.988871 0.146793 -0.0242004
    length 3.5792
    axis -0.001389 0.000121451 1.30017e-006 xyz
  end
  begin
    id 12
    name LeftShoulder1
    direction 0.993832 0.108932 0.020779
    length 4.16823
    axis -0.001389 0.000121451 1.30017e-006 xyz
    dof rx ry rz
  end
  begin
    id 13
    name LeftArm
    direction 1 3.44807e-006 -8.31404e-007
    length 9.91437
    axis -23.1894 0.134784 0.967509 xyz
    dof rx ry rz
  end
  begin
    id 14
    name LeftForeArm
    direction 1 3.44842e-006 -8.31581e-007
    length 9.08575
    axis -9.91835 -0.06569 -0.177793 xyz
    dof rx ry rz
  end
  begin
    id 15
    name LeftHand
    direction 0.992938 -0.0411636 0.11126
    length 5.32135
    axis -0.00960232 -0.00340091 0.185173 xyz
    dof rx ry rz
  end
  begin
    id 16
    name RightShoulderDummy
    direction -0.988871 0.146793 -0.0241962
    length 3.5792
    axis -0.001389 0.000121451 1.30017e-006 xyz
  end
  begin
    id 17
    name RightShoulder
    direction -0.993832 0.108933 0.0207785
    length 4.16823
    axis 0.215806 0.000203643 -0.0068026 xyz
    dof rx ry rz
  end
  begin
    id 18
    name RightArm
    direction -1 3.90912e-006 8.31284e-007
    length 9.91437
    axis -23.2009 -0.134239 -0.964101 xyz
    dof rx ry rz
  end
  begin
    id 19
    name RightForeArm
    direction -1 3.90882e-006 8.31502e-007
    length 9.08575
    axis -9.92322 0.0658061 0.178867 xyz
    dof rx ry rz
  end
  begin
    id 20
    name RightHand
    direction -0.992843 -0.0414603 0.112003
    length 5.28593
    axis -0.00960638 0.00330671 -0.185228 xyz
    dof rx ry rz
  end
  begin
    id 21
    name LeftUpLegDummy
    direction 1 -2.30186e-007 -8.31532e-007
    length 4.46685
    axis 0 0 0 xyz
  end
  begin
    id 22
    name LeftUpLeg
    direction -2.30187e-007 -1 6.00931e-010
    length 16.4045
    axis -3.48766 0.00143442 -0.000524262 xyz
    dof rx ry rz
  end
  begin
    id 23
    name LeftLeg
    direction -2.30187e-007 -1 1.6669e-009
    length 17.5097
    axis 3.68178 -0.00654042 -0.000285133 xyz
    dof rx ry rz
  end
  begin
    id 24
    name LeftFoot
    direction 8.31532e-007 -4.54478e-011 1
    length 6.49508
    axis 1.87233e-006 4.66016e-005 -8.6538e-006 xyz
    dof rx ry rz
  end
  begin
    id 25
    name LeftToes
    direction 0.00818058 -0.00485161 0.999955
    length 3.85048
    axis 1.06247e-005 4.65869e-005 -8.65513e-006 xyz
    dof rx ry rz
  end
:hierarchy
  begin
    root RightUpLegDummy SpineDummy LeftUpLegDummy
    RightUpLegDummy RightUpLeg
    RightUpLeg RightLeg
    RightLeg RightFoot
    RightFoot RightToes
    SpineDummy Spine
    Spine Spine1
    Spine1 HEadDummy LeftShoulder1Dummy RightShoulderDummy
    HEadDummy HEad
    LeftShoulder1Dummy LeftShoulder1
    LeftShoulder1 LeftArm
    LeftArm LeftForeArm
    LeftForeArm LeftHand
    RightShoulderDummy RightShoulder
    RightShoulder RightArm
    RightArm RightForeArm
    RightForeArm RightHand
    LeftUpLegDummy LeftUpLeg
    LeftUpLeg LeftLeg
    LeftLeg LeftFoot
    LeftFoot LeftToes
  end

:SAMPLES-PER-SECOND 30
:FULLY-SPECIFIED
:DEGREES
16
root  -2.08991 34.0558 1.36007 179.09 -4.13678 179.468
RightUpLeg  0.603939 -7.39269 -1.21362
RightLeg  6.65857 -2.63829 -0.135492
RightFoot  4.82562 0.0253903 -0.251582
RightToes  -28.3369 -0.132066 -0.239636
Spine  1.61599 -1.8794 -0.91314
Spine1  3.25232 -3.72819 -1.97902
HEad  18.5947 1.09218 8.73936
LeftShoulder1  0 -2.42657e-020 -4.95415e-022
LeftArm  -71.8414 13.1072 -4.45636
LeftForeArm  58.1273 -24.6832 -4.59923
LeftHand  0.802581 -8.86622 -10.7026
RightShoulder  0 2.42657e-020 1.07489e-018
RightArm  -81.0917 -14.147 4.42714
RightForeArm  64.089 11.2066 1.94738
RightHand  -0.602552 20.0167 -3.04431
LeftUpLeg  0.694511 2.07674 -1.87571
LeftLeg  7.38887 -8.41534 -0.544111
LeftFoot  1.83049 -0.000337148 -0.290923
LeftToes  -1.99442 2.37847e-007 4.89147e-008
17
root  -2.21335 34.0536 1.41772 179.144 -4.27283 179.632
RightUpLeg  0.0287516 -7.17914 -1.2007
RightLeg  7.51142 -2.92846 -0.194193
RightFoot  4.66907 0.0263368 -0.266282
RightToes  -28.3304 -0.132595 -0.240196
Spine  1.7406 -1.91622 -0.869977
Spine1  3.50024 -3.79759 -1.89501
HEad  17.7411 0.850801 9.52332
LeftShoulder1  0 -2.42657e-020 -4.95415e-022
LeftArm  -71.7339 12.8419 -4.3128
LeftForeArm  58.2129 -24.588 -4.57867
LeftHand  0.875127 -9.23144 -11.1859
RightShoulder  0 2.42657e-020 1.07489e-018
RightArm  -80.5193 -14.5808 4.80476
RightForeArm  62.9794 11.5458 2.012
RightHand  -0.587662 19.6053 -3.03126
LeftUpLeg  0.687104 2.48639 -1.79752
LeftLeg  7.11238 -9.12754 -0.545651
LeftFoot  1.95692 0.0023524 -0.33272
LeftToes  -2.23621 2.37847e-007 4.89147e-008
18
root  -2.31909 34.0532 1.48379 179.33 -4.1962 179.811
RightUpLeg  -0.951694 -7.06365 -1.17314
RightLeg  8.81792 -2.82468 -0.252038
RightFoot  4.29454 0.0245497 -0.238529
RightToes  -28.3648 -0.132825 -0.240442
Spine  1.80844 -1.93445 -0.793571
Spine1  3.63335 -3.83423 -1.74427
HEad  16.8597 0.749733 10.1044
LeftShoulder1  0 -2.42657e-020 -4.95415e-022
LeftArm  -71.7455 12.7841 -4.21588
LeftForeArm  58.1778 -24.5807 -4.57718
LeftHand  0.904326 -9.24596 -11.527
RightShoulder  0 2.42657e-020 1.07489e-018
RightArm  -79.5019 -14.7164 4.9925
RightForeArm  61.7434 11.3659 1.98194
RightHand  -0.56533 19.0398 -3.00112
LeftUpLeg  0.501035 3.05367 -1.68436
LeftLeg  6.93573 -9.78565 -0.554418
LeftFoot  2.0393 0.00471798 -0.369483
LeftToes  -2.52886 2.37847e-007 4.89147e-008
19
root  -2.40549 34.0459 1.55836 179.638 -3.64136 179.796
RightUpLeg  -2.49413 -6.37439 -1.34349
RightLeg  10.9381 -2.43617 -0.308533
RightFoot  3.18233 0.0194517 -0.159362
RightToes  -30.6313 -0.148292 -0.25633
Spine  1.82057 -1.79809 -0.782211
Spine1  3.65299 -3.56102 -1.71589
HEad  16.2898 0.717117 10.3689
LeftShoulder1  0 -2.42657e-020 -4.95415e-022
LeftArm  -72.0114 12.6604 -4.11412
LeftForeArm  58.498 -24.4207 -4.54231
LeftHand  0.903679 -9.34271 -11.4038
RightShoulder  0 2.42657e-020 1.07489e-018
RightArm  -77.8393 -14.9311 5.22444
RightForeArm  59.7438 11.5341 2.01718
RightHand  -0.545132 18.4687 -2.98309
LeftUpLeg  0.132977 3.62439 -1.79131
LeftLeg  6.94678 -9.91193 -0.563399
LeftFoot  2.06658 0.00528453 -0.378287
LeftToes  -2.64296 2.37847e-007 4.89147e-008
20
root  -2.4671 34.0297 1.60328 179.698 -3.10149 179.696
RightUpLeg  -3.66461 -4.3724 -1.66847
RightLeg  13.259 -1.58483 -0.266266
RightFoot  1.7776 0.0136032 -0.068547
RightToes  -33.1622 -0.166291 -0.273332
Spine  1.91082 -1.68106 -0.841378
Spine1  3.83189 -3.32226 -1.83015
HEad  15.738 0.786565 10.3906
LeftShoulder1  0 -2.42657e-020 -4.95415e-022
LeftArm  -72.2082 12.4732 -3.89368
LeftForeArm  58.839 -24.2137 -4.49749
LeftHand  0.876647 -9.21949 -11.2186
RightShoulder  0 2.42657e-020 1.07489e-018
RightArm  -76.0787 -15.0464 5.63911
RightForeArm  57.5246 12.0179 2.11062
RightHand  -0.516174 17.6882 -2.94753
LeftUpLeg  0.0591088 3.7984 -1.9979
LeftLeg  6.95925 -9.58112 -0.546887
LeftFoot  2.02809 0.00401033 -0.358485
LeftToes  -2.57522 2.37847e-007 4.89147e-008
21
root  -2.50993 34.0109 1.6144 179.568 -2.89842 179.575
RightUpLeg  -4.28626 -2.22185 -2.09353
RightLeg  15.4973 -2.62615 -0.548442
RightFoot  0.952716 0.0130798 -0.0604205
RightToes  -30.8582 -0.149875 -0.257886
Spine  2.00611 -1.6567 -0.907428
Spine1  4.02429 -3.26749 -1.9642
HEad  15.4391 0.766987 10.2471
LeftShoulder1  0 -2.42657e-020 -4.95415e-022
LeftArm  -72.4384 12.137 -3.78346
LeftForeArm  58.9357 -24.1296 -4.47942
LeftHand  0.847914 -9.03897 -11.0745
RightShoulder  0 2.42657e-020 1.07489e-018
RightArm  -74.7065 -15.0796 6.02144
RightForeArm  55.846 12.4844 2.19993
RightHand  -0.512226 16.89 -3.08018
LeftUpLeg  0.169273 4.1313 -2.14343
LeftLeg  7.02436 -9.69309 -0.564213
LeftFoot  1.9643 0.00352308 -0.350913
LeftToes  -2.66982 2.37847e-007 4.89147e-008
22
root  -2.5413 33.9933 1.57323 179.473 -3.37782 179.412
RightUpLeg  -4.04345 -2.2685 -2.77987
RightLeg  16.369 -4.28438 -0.962719
RightFoot  0.497011 0.0124996 -0.0514121
RightToes  -28.6286 -0.134592 -0.242322
Spine  2.02992 -1.74258 -0.96495
Spine1  4.0767 -3.432 -2.08772
HEad  15.4928 0.414736 9.85602
LeftShoulder1  0 -2.42657e-020 -4.95415e-022
LeftArm  -72.3659 11.4723 -4.01579
LeftForeArm  58.7108 -23.9982 -4.45209
LeftHand  0.802287 -8.87424 -10.6895
RightShoulder  0 2.42657e-020 1.07489e-018
RightArm  -73.7707 -15.5699 6.22108
RightForeArm  54.3056 12.8541 2.27124
RightHand  -0.483034 16.7038 -2.92043
LeftUpLeg  0.257936 4.01851 -2.33651
LeftLeg  7.09104 -10.0251 -0.594972
LeftFoot  1.95461 0.0040962 -0.35982
LeftToes  -2.53814 2.37847e-007 4.89147e-008
